<!-- Generated by IcoMoon.io -->
<svg version="1.1" xmlns="http://www.w3.org/2000/svg" width="32" height="32" viewBox="0 0 32 32">
<title>united-kingdom</title>
<path fill="#00247d" d="M0 11.556h5.003l-5.003-3.502v3.502z"></path>
<path fill="#00247d" d="M4.146 27.556h7.41v-5.188l-7.41 5.188z"></path>
<path fill="#00247d" d="M20.444 22.368v5.188h7.409l-7.409-5.188z"></path>
<path fill="#00247d" d="M0 20.444v3.503l5.004-3.503h-5.004z"></path>
<path fill="#00247d" d="M27.858 4.444h-7.411v5.188l7.411-5.188z"></path>
<path fill="#00247d" d="M26.995 20.444l5.005 3.504v-3.504h-5.005z"></path>
<path fill="#00247d" d="M26.997 11.556h5.003v-3.503l-5.003 3.503z"></path>
<path fill="#00247d" d="M11.556 4.444h-7.41l7.41 5.188v-5.188z"></path>
<path fill="#cf1b2b" d="M22.347 20.444l8.633 6.045c0.419-0.427 0.718-0.962 0.88-1.555l-6.413-4.491h-3.1z"></path>
<path fill="#cf1b2b" d="M11.556 20.444h-1.903l-8.632 6.044c0.463 0.471 1.057 0.808 1.723 0.964l8.812-6.171v-0.838z"></path>
<path fill="#cf1b2b" d="M20.444 11.556h1.903l8.632-6.044c-0.463-0.471-1.057-0.808-1.722-0.964l-8.813 6.171v0.838z"></path>
<path fill="#cf1b2b" d="M9.652 11.556l-8.632-6.044c-0.419 0.427-0.718 0.962-0.881 1.555l6.413 4.49h3.099z"></path>
<path fill="#eee" d="M32 18.667h-13.333v8.889h1.778v-5.188l7.409 5.188h0.591c0.993 0 1.89-0.41 2.535-1.066l-8.633-6.045h3.1l6.413 4.491c0.083-0.3 0.14-0.61 0.14-0.935v-0.052l-5.005-3.504h5.005v-1.778z"></path>
<path fill="#eee" d="M0 18.667v1.778h5.004l-5.004 3.503v0.052c0 0.97 0.39 1.847 1.020 2.489l8.632-6.044h1.903v0.838l-8.813 6.171c0.261 0.061 0.532 0.102 0.812 0.102h0.59l7.41-5.188v5.188h1.778v-8.889h-13.333z"></path>
<path fill="#eee" d="M32 8c0-0.97-0.39-1.847-1.020-2.489l-8.632 6.044h-1.903v-0.838l8.813-6.171c-0.262-0.061-0.532-0.102-0.813-0.102h-0.589l-7.411 5.188v-5.188h-1.778v8.889h13.333v-1.778h-5.004l5.004-3.503v-0.052z"></path>
<path fill="#eee" d="M11.556 4.444v5.188l-7.41-5.188h-0.59c-0.994 0-1.89 0.41-2.535 1.067l8.632 6.044h-3.1l-6.413-4.49c-0.082 0.3-0.14 0.609-0.14 0.934v0.052l5.003 3.503h-5.003v1.778h13.333v-8.889h-1.778z"></path>
<path fill="#cf1b2b" d="M18.667 13.333v-8.889h-5.333v8.889h-13.333v5.333h13.333v8.889h5.333v-8.889h13.333v-5.333h-13.333z"></path>
</svg>
